<svg width="40" height="39" viewBox="0 0 40 39" fill="none" xmlns="http://www.w3.org/2000/svg">
<path d="M20 0.74588C8.96422 0.74588 0 9.14799 0 19.4918C0 29.8355 8.96422 38.2376 20 38.2376C31.0358 38.2376 40 29.8355 40 19.4918C40 9.14799 31.0358 0.74588 20 0.74588ZM20 2.37624C30.0976 2.37624 38.264 10.0306 38.264 19.4918C38.264 28.9562 30.0976 36.6105 20 36.6105C9.90584 36.6105 1.73943 28.9562 1.73943 19.4918C1.73943 10.0306 9.90584 2.37624 20 2.37624ZM24.9512 10.5729C21.8216 10.5729 19.2638 12.9703 19.2638 15.9037C19.2638 15.9229 19.2707 15.9454 19.2707 15.9647C15.9562 15.5507 13.0217 14.0166 11.005 11.6994C10.8235 11.4908 10.5461 11.3817 10.2619 11.401C9.97774 11.4234 9.72094 11.5743 9.58055 11.8021C9.09091 12.5916 8.80671 13.5127 8.80671 14.4884C8.80671 15.3517 9.06694 16.1572 9.46071 16.8825C9.06009 16.9628 8.76905 17.2933 8.76905 17.6785V17.7362C8.76905 19.312 9.56001 20.676 10.7242 21.6549C10.4845 21.8699 10.3989 22.1908 10.4982 22.4893C10.981 23.9046 12.1178 25.0119 13.5319 25.6409C12.3986 26.1383 11.183 26.4946 9.8442 26.4946C9.4881 26.4946 9.14227 26.4753 8.79986 26.4336C8.39582 26.3887 8.01233 26.6101 7.87879 26.9696C7.7384 27.329 7.88564 27.727 8.22804 27.9324C10.4914 29.2931 13.1895 30.0891 16.076 30.0891C20.7464 30.0891 24.441 28.2469 26.9064 25.6281C29.3751 23.0028 30.6557 19.6169 30.6557 16.4268C30.6557 16.3305 30.6523 16.2407 30.6489 16.1476C31.4946 15.5089 32.2924 14.8061 32.8951 13.9588C33.1039 13.6732 33.0936 13.2977 32.8711 13.0185C32.6519 12.7425 32.2719 12.6237 31.9158 12.7264C32.0596 12.4697 32.2582 12.2482 32.3506 11.969C32.4636 11.6481 32.3472 11.295 32.0664 11.0832C31.7857 10.8746 31.3953 10.8457 31.0837 11.019C30.3236 11.4395 29.4676 11.7219 28.5841 11.9145C27.5877 11.1185 26.3517 10.5729 24.9512 10.5729ZM24.9512 12.2033C26.0914 12.2033 27.1152 12.6494 27.8309 13.3683C28.0363 13.5769 28.341 13.67 28.6321 13.6154C28.7656 13.5897 28.8718 13.5127 29.0019 13.4806C28.9848 13.4903 28.9745 13.5095 28.9574 13.5191C28.6218 13.7085 28.4609 14.0872 28.5704 14.4402C28.68 14.7933 29.0259 15.0372 29.4196 15.0307C29.358 15.0725 29.3237 15.1431 29.2655 15.1848C29.0259 15.3453 28.8889 15.6052 28.9026 15.878C28.9094 16.061 28.9163 16.2439 28.9163 16.4268C28.9163 19.2029 27.7761 22.239 25.6018 24.5497C23.4309 26.8572 20.2705 28.4587 16.076 28.4587C14.6413 28.4587 13.2888 28.1891 12.0014 27.7815C13.6038 27.4606 15.1207 26.9311 16.3636 26.0164C16.6513 25.8014 16.7677 25.4419 16.6478 25.1178C16.5314 24.7904 16.2096 24.569 15.8432 24.5625C14.6139 24.5401 13.662 23.8854 12.9567 23.0445C13.2169 23.0124 13.484 23.0124 13.7339 22.9482C14.1209 22.8487 14.3845 22.5118 14.3708 22.1363C14.3571 21.7576 14.0695 21.4366 13.6723 21.366C12.2376 21.09 11.118 20.0823 10.7071 18.7761C11.0769 18.8595 11.3987 19.0457 11.7925 19.0585C12.1794 19.0681 12.5321 18.8403 12.6485 18.4936C12.7684 18.147 12.6246 17.7715 12.3061 17.5661C11.2446 16.9018 10.5461 15.7753 10.5461 14.4884C10.5461 14.2188 10.7002 14.007 10.7584 13.7598C13.2272 16.0513 16.5143 17.5726 20.2191 17.7491C20.4896 17.7619 20.7533 17.6528 20.9279 17.4538C21.106 17.258 21.1676 16.9917 21.106 16.7445C21.0409 16.4782 21.0033 16.1957 21.0033 15.9037C21.0033 13.8497 22.7598 12.2033 24.9512 12.2033Z" fill="black"/>
</svg>
